<?xml version="1.0" standalone="no"?><!DOCTYPE svg PUBLIC "-//W3C//DTD SVG 1.1//EN" "http://www.w3.org/Graphics/SVG/1.1/DTD/svg11.dtd"><svg xmlns:xlink="http://www.w3.org/1999/xlink" version="1.1" style="font-family:'lucida grande', 'lucida sans unicode', arial, helvetica, sans-serif;font-size:12px;" xmlns="http://www.w3.org/2000/svg" width="600" height="400"><desc>Created with Highcharts 4.2.7</desc><defs><clipPath id="highcharts-11"><rect x="1" y="1" width="519" height="291"></rect></clipPath></defs><rect x="69" y="36" width="521" height="293" fill="#ffffff"></rect><path fill="rgb(255, 255, 255)" fill-opacity=" .5" d="M 69 329.5 L 590 329.5 590 270.5 69 270.5"></path><path fill="rgb(255, 255, 255)" fill-opacity=" .5" d="M 69 212.5 L 590 212.5 590 153.5 69 153.5"></path><path fill="rgb(255, 255, 255)" fill-opacity=" .5" d="M 69 95.5 L 590 95.5 590 36.5 69 36.5"></path><g class="highcharts-grid"></g><g class="highcharts-grid"><path fill="none" d="M 69 329.5 L 590 329.5" stroke="#C0C0C0" stroke-width="1" opacity="1"></path><path fill="none" d="M 69 270.5 L 590 270.5" stroke="#C0C0C0" stroke-width="1" opacity="1"></path><path fill="none" d="M 69 212.5 L 590 212.5" stroke="#C0C0C0" stroke-width="1" opacity="1"></path><path fill="none" d="M 69 153.5 L 590 153.5" stroke="#C0C0C0" stroke-width="1" opacity="1"></path><path fill="none" d="M 69 95.5 L 590 95.5" stroke="#C0C0C0" stroke-width="1" opacity="1"></path><path fill="none" d="M 69 35.5 L 590 35.5" stroke="#C0C0C0" stroke-width="1" opacity="1"></path></g><rect x="69" y="36" width="521" height="293" stroke="#026FC1" stroke-width="2" fill="none"></rect><g class="highcharts-axis"><path fill="none" d="M 242.5 329 L 242.5 339" stroke="#C0D0E0" stroke-width="1" opacity="1"></path><path fill="none" d="M 415.5 329 L 415.5 339" stroke="#C0D0E0" stroke-width="1" opacity="1"></path><path fill="none" d="M 590.5 329 L 590.5 339" stroke="#C0D0E0" stroke-width="1" opacity="1"></path><path fill="none" d="M 68.5 329 L 68.5 339" stroke="#C0D0E0" stroke-width="1" opacity="1"></path><path fill="none" d="M 69 329.5 L 590 329.5" stroke="#C0D0E0" stroke-width="1"></path></g><g class="highcharts-axis"><path fill="none" d="M 69 329.5 L 59 329.5" stroke="#C0D0E0" stroke-width="1" opacity="1"></path><path fill="none" d="M 69 270.5 L 59 270.5" stroke="#C0D0E0" stroke-width="1" opacity="1"></path><path fill="none" d="M 69 212.5 L 59 212.5" stroke="#C0D0E0" stroke-width="1" opacity="1"></path><path fill="none" d="M 69 153.5 L 59 153.5" stroke="#C0D0E0" stroke-width="1" opacity="1"></path><path fill="none" d="M 69 95.5 L 59 95.5" stroke="#C0D0E0" stroke-width="1" opacity="1"></path><path fill="none" d="M 69 35.5 L 59 35.5" stroke="#C0D0E0" stroke-width="1" opacity="1"></path><text x="21.328125" text-anchor="middle" transform="translate(0,0) rotate(270 21.328125 182.5)" class=" highcharts-yaxis-title" style="color:#000000;font-size:10px;font-family:'arial', sans-serif;text-transform:none;font-weight:normal;fill:#000000;" y="182.5"><tspan>No.of Items</tspan></text></g><g class="highcharts-series-group"><g class="highcharts-series highcharts-series-0" transform="translate(69,36) scale(1 1)" clip-path="url(#highcharts-11)"><rect x="44.5" y="45.5" width="84" height="248" stroke="#FFFFFF" stroke-width="1" fill="#50b432" rx="0" ry="0"></rect><rect x="218.5" y="253.5" width="84" height="40" stroke="#FFFFFF" stroke-width="1" fill="#787878" rx="0" ry="0"></rect><rect x="391.5" y="289.5" width="84" height="4" stroke="#FFFFFF" stroke-width="1" fill="#747474" rx="0" ry="0"></rect></g><g class="highcharts-markers highcharts-series-0" transform="translate(69,36) scale(1 1)" clip-path="none"></g><g class="highcharts-series highcharts-series-1" transform="translate(69,36) scale(1 1)" clip-path="url(#highcharts-11)"></g><g class="highcharts-markers highcharts-series-1" transform="translate(69,36) scale(1 1)" clip-path="none"></g></g><text x="300" text-anchor="middle" class="highcharts-title" style="color:#000000;font-size:10px;font-family:'arial', sans-serif;text-transform:none;fill:#000000;width:536px;" y="17"><tspan>Most sold product</tspan></text><g class="highcharts-data-labels highcharts-series-0" transform="translate(69,36) scale(1 1)" opacity="1"><g style="cursor:pointer;" transform="translate(73,25)"><text x="5" style="font-size:10px;font-weight:bold;font-family:'arial', sans-serif;color:#000000;text-shadow:0 0 6px #ffffff, 0 0 3px #ffffff;fill:#000000;text-rendering:geometricprecision;" y="15"><tspan>847</tspan></text></g><g style="cursor:pointer;" transform="translate(247,233)"><text x="5" style="font-size:10px;font-weight:bold;font-family:'arial', sans-serif;color:#000000;text-shadow:0 0 6px #ffffff, 0 0 3px #ffffff;fill:#000000;text-rendering:geometricprecision;" y="15"><tspan>136</tspan></text></g><g style="cursor:pointer;" transform="translate(423,269)"><text x="5" style="font-size:10px;font-weight:bold;font-family:'arial', sans-serif;color:#000000;text-shadow:0 0 6px #ffffff, 0 0 3px #ffffff;fill:#000000;text-rendering:geometricprecision;" y="15"><tspan>15</tspan></text></g></g><g class="highcharts-data-labels highcharts-series-1" transform="translate(69,36) scale(1 1)" opacity="1"></g><g class="highcharts-legend" transform="translate(266,360)"><g><g><g class="highcharts-legend-item" transform="translate(8,3)"><text x="21" style="color:#333;font-size:9pt;font-weight:normal;cursor:pointer;font-family:'lucida grande','lucida sans unicode',arial,helvetica,sans-serif;text-transform:none;fill:#333;" text-anchor="start" y="15">Sales</text><rect x="0" y="4" width="16" height="12" fill="#CCC"></rect></g></g></g></g><g class="highcharts-axis-labels highcharts-xaxis-labels"><text x="155.83333333333331" style="color:#000000;cursor:default;font-size:10px;font-family:'arial', sans-serif;text-transform:none;font-weight:normal;fill:#000000;" text-anchor="middle" transform="translate(0,0)" y="347" opacity="1">Product1</text><text x="329.5" style="color:#000000;cursor:default;font-size:10px;font-family:'arial', sans-serif;text-transform:none;font-weight:normal;fill:#000000;" text-anchor="middle" transform="translate(0,0)" y="347" opacity="1">Product2</text><text x="503.1666666666667" style="color:#000000;cursor:default;font-size:10px;font-family:'arial', sans-serif;text-transform:none;font-weight:normal;fill:#000000;" text-anchor="middle" transform="translate(0,0)" y="347" opacity="1">Product3</text></g><g class="highcharts-axis-labels highcharts-yaxis-labels"><text x="54" style="color:#000000;cursor:default;font-size:10px;font-family:'arial', sans-serif;text-transform:none;font-weight:normal;fill:#000000;width:188px;text-overflow:clip;" text-anchor="end" transform="translate(0,0)" y="334" opacity="1"><tspan>0</tspan></text><text x="54" style="color:#000000;cursor:default;font-size:10px;font-family:'arial', sans-serif;text-transform:none;font-weight:normal;fill:#000000;width:188px;text-overflow:clip;" text-anchor="end" transform="translate(0,0)" y="275" opacity="1"><tspan>200</tspan></text><text x="54" style="color:#000000;cursor:default;font-size:10px;font-family:'arial', sans-serif;text-transform:none;font-weight:normal;fill:#000000;width:188px;text-overflow:clip;" text-anchor="end" transform="translate(0,0)" y="216" opacity="1"><tspan>400</tspan></text><text x="54" style="color:#000000;cursor:default;font-size:10px;font-family:'arial', sans-serif;text-transform:none;font-weight:normal;fill:#000000;width:188px;text-overflow:clip;" text-anchor="end" transform="translate(0,0)" y="158" opacity="1"><tspan>600</tspan></text><text x="54" style="color:#000000;cursor:default;font-size:10px;font-family:'arial', sans-serif;text-transform:none;font-weight:normal;fill:#000000;width:188px;text-overflow:clip;" text-anchor="end" transform="translate(0,0)" y="99" opacity="1"><tspan>800</tspan></text><text x="54" style="color:#000000;cursor:default;font-size:10px;font-family:'arial', sans-serif;text-transform:none;font-weight:normal;fill:#000000;width:188px;text-overflow:clip;" text-anchor="end" transform="translate(0,0)" y="41" opacity="1"><tspan>1000</tspan></text></g><g class="highcharts-tooltip" display="none" style="cursor:default;padding:0;pointer-events:none;white-space:nowrap;" transform="translate(0,0)"><path fill="none" d="M 3.5 0.5 L 13.5 0.5 C 16.5 0.5 16.5 0.5 16.5 3.5 L 16.5 13.5 C 16.5 16.5 16.5 16.5 13.5 16.5 L 3.5 16.5 C 0.5 16.5 0.5 16.5 0.5 13.5 L 0.5 3.5 C 0.5 0.5 0.5 0.5 3.5 0.5"  stroke="black" stroke-opacity="0.049999999999999996" stroke-width="5" transform="translate(1, 1)"></path><path fill="none" d="M 3.5 0.5 L 13.5 0.5 C 16.5 0.5 16.5 0.5 16.5 3.5 L 16.5 13.5 C 16.5 16.5 16.5 16.5 13.5 16.5 L 3.5 16.5 C 0.5 16.5 0.5 16.5 0.5 13.5 L 0.5 3.5 C 0.5 0.5 0.5 0.5 3.5 0.5"  stroke="black" stroke-opacity="0.09999999999999999" stroke-width="3" transform="translate(1, 1)"></path><path fill="none" d="M 3.5 0.5 L 13.5 0.5 C 16.5 0.5 16.5 0.5 16.5 3.5 L 16.5 13.5 C 16.5 16.5 16.5 16.5 13.5 16.5 L 3.5 16.5 C 0.5 16.5 0.5 16.5 0.5 13.5 L 0.5 3.5 C 0.5 0.5 0.5 0.5 3.5 0.5"  stroke="black" stroke-opacity="0.15" stroke-width="1" transform="translate(1, 1)"></path><path fill="rgb(255, 255, 255)" fill-opacity=" 0.85" d="M 3.5 0.5 L 13.5 0.5 C 16.5 0.5 16.5 0.5 16.5 3.5 L 16.5 13.5 C 16.5 16.5 16.5 16.5 13.5 16.5 L 3.5 16.5 C 0.5 16.5 0.5 16.5 0.5 13.5 L 0.5 3.5 C 0.5 0.5 0.5 0.5 3.5 0.5"></path><text x="8" style="font-size:12px;color:#000000;fill:#000000;" y="20"></text></g><text x="590" text-anchor="end" style="cursor:pointer;color:#909090;font-size:9px;fill:#909090;" y="395">meta-chart.com</text></svg>