<?xml version="1.0" standalone="no"?><!DOCTYPE svg PUBLIC "-//W3C//DTD SVG 1.1//EN" "http://www.w3.org/Graphics/SVG/1.1/DTD/svg11.dtd"><svg xmlns:xlink="http://www.w3.org/1999/xlink" version="1.1" style="font-family:'lucida grande', 'lucida sans unicode', arial, helvetica, sans-serif;font-size:12px;" xmlns="http://www.w3.org/2000/svg" width="600" height="400"><desc>Created with Highcharts 4.2.7</desc><defs><clipPath id="highcharts-27"><rect x="1" y="1" width="275" height="513"></rect></clipPath></defs><rect x="75" y="36" width="515" height="277" fill="#ffffff"></rect><path fill="rgb(255, 255, 255)" fill-opacity=" .5" d="M 74.5 36 L 74.5 313 126.5 313 126.5 36"></path><path fill="rgb(255, 255, 255)" fill-opacity=" .5" d="M 177.5 36 L 177.5 313 229.5 313 229.5 36"></path><path fill="rgb(255, 255, 255)" fill-opacity=" .5" d="M 280.5 36 L 280.5 313 332.5 313 332.5 36"></path><path fill="rgb(255, 255, 255)" fill-opacity=" .5" d="M 383.5 36 L 383.5 313 435.5 313 435.5 36"></path><path fill="rgb(255, 255, 255)" fill-opacity=" .5" d="M 486.5 36 L 486.5 313 538.5 313 538.5 36"></path><g class="highcharts-grid"></g><g class="highcharts-grid"><path fill="none" d="M 74.5 36 L 74.5 313" stroke="#C0C0C0" stroke-width="1" opacity="1"></path><path fill="none" d="M 126.5 36 L 126.5 313" stroke="#C0C0C0" stroke-width="1" opacity="1"></path><path fill="none" d="M 177.5 36 L 177.5 313" stroke="#C0C0C0" stroke-width="1" opacity="1"></path><path fill="none" d="M 229.5 36 L 229.5 313" stroke="#C0C0C0" stroke-width="1" opacity="1"></path><path fill="none" d="M 280.5 36 L 280.5 313" stroke="#C0C0C0" stroke-width="1" opacity="1"></path><path fill="none" d="M 332.5 36 L 332.5 313" stroke="#C0C0C0" stroke-width="1" opacity="1"></path><path fill="none" d="M 383.5 36 L 383.5 313" stroke="#C0C0C0" stroke-width="1" opacity="1"></path><path fill="none" d="M 435.5 36 L 435.5 313" stroke="#C0C0C0" stroke-width="1" opacity="1"></path><path fill="none" d="M 486.5 36 L 486.5 313" stroke="#C0C0C0" stroke-width="1" opacity="1"></path><path fill="none" d="M 538.5 36 L 538.5 313" stroke="#C0C0C0" stroke-width="1" opacity="1"></path><path fill="none" d="M 590.5 36 L 590.5 313" stroke="#C0C0C0" stroke-width="1" opacity="1"></path></g><rect x="75" y="36" width="515" height="277" stroke="#026FC1" stroke-width="2" fill="none"></rect><g class="highcharts-axis"><path fill="none" d="M 75 105.5 L 65 105.5" stroke="#C0D0E0" stroke-width="1" opacity="1"></path><path fill="none" d="M 75 175.5 L 65 175.5" stroke="#C0D0E0" stroke-width="1" opacity="1"></path><path fill="none" d="M 75 244.5 L 65 244.5" stroke="#C0D0E0" stroke-width="1" opacity="1"></path><path fill="none" d="M 75 313.5 L 65 313.5" stroke="#C0D0E0" stroke-width="1" opacity="1"></path><path fill="none" d="M 75 35.5 L 65 35.5" stroke="#C0D0E0" stroke-width="1" opacity="1"></path><path fill="none" d="M 74.5 36 L 74.5 313" stroke="#C0D0E0" stroke-width="1"></path></g><g class="highcharts-axis"><path fill="none" d="M 74.5 313 L 74.5 323" stroke="#C0D0E0" stroke-width="1" opacity="1"></path><path fill="none" d="M 126.5 313 L 126.5 323" stroke="#C0D0E0" stroke-width="1" opacity="1"></path><path fill="none" d="M 177.5 313 L 177.5 323" stroke="#C0D0E0" stroke-width="1" opacity="1"></path><path fill="none" d="M 229.5 313 L 229.5 323" stroke="#C0D0E0" stroke-width="1" opacity="1"></path><path fill="none" d="M 280.5 313 L 280.5 323" stroke="#C0D0E0" stroke-width="1" opacity="1"></path><path fill="none" d="M 332.5 313 L 332.5 323" stroke="#C0D0E0" stroke-width="1" opacity="1"></path><path fill="none" d="M 383.5 313 L 383.5 323" stroke="#C0D0E0" stroke-width="1" opacity="1"></path><path fill="none" d="M 435.5 313 L 435.5 323" stroke="#C0D0E0" stroke-width="1" opacity="1"></path><path fill="none" d="M 486.5 313 L 486.5 323" stroke="#C0D0E0" stroke-width="1" opacity="1"></path><path fill="none" d="M 538.5 313 L 538.5 323" stroke="#C0D0E0" stroke-width="1" opacity="1"></path><path fill="none" d="M 590.5 313 L 590.5 323" stroke="#C0D0E0" stroke-width="1" opacity="1"></path><text x="332.5" text-anchor="middle" transform="translate(0,0)" class=" highcharts-yaxis-title" style="color:#000000;font-size:10px;font-family:'arial', sans-serif;text-transform:none;font-weight:normal;fill:#000000;" y="347"><tspan>No. of Card Used</tspan></text></g><g class="highcharts-series-group"><g class="highcharts-series highcharts-series-0" transform="translate(590,313) rotate(90) scale(-1,1) scale(1 1)" width="515" height="277" clip-path="url(#highcharts-27)"><rect x="225.5" y="49.5" width="34" height="466" stroke="#FFFFFF" stroke-width="1" fill="#34b432" rx="0" ry="0"></rect><rect x="156.5" y="245.5" width="34" height="270" stroke="#FFFFFF" stroke-width="1" fill="#8d8d8d" rx="0" ry="0"></rect><rect x="86.5" y="367.5" width="34" height="148" stroke="#FFFFFF" stroke-width="1" fill="#8d8d8d" rx="0" ry="0"></rect><rect x="17.5" y="445.5" width="34" height="70" stroke="#FFFFFF" stroke-width="1" fill="#8e8e8e" rx="0" ry="0"></rect></g><g class="highcharts-markers highcharts-series-0" transform="translate(590,313) rotate(90) scale(-1,1) scale(1 1)" width="515" height="277" clip-path="none"></g><g class="highcharts-series highcharts-series-1" transform="translate(590,313) rotate(90) scale(-1,1) scale(1 1)" width="515" height="277" clip-path="url(#highcharts-27)"></g><g class="highcharts-markers highcharts-series-1" transform="translate(590,313) rotate(90) scale(-1,1) scale(1 1)" width="515" height="277" clip-path="none"></g></g><text x="300" text-anchor="middle" class="highcharts-title" style="color:#000000;font-size:10px;font-family:'arial', sans-serif;text-transform:none;fill:#000000;width:536px;" y="17"><tspan>Most common payment method for the United States</tspan></text><g class="highcharts-data-labels highcharts-series-0" transform="translate(75,36) scale(1 1)" opacity="1"><g style="cursor:pointer;" transform="translate(466,24)"><text x="5" style="font-size:10px;font-weight:bold;font-family:'arial', sans-serif;color:#000000;text-shadow:0 0 6px #ffffff, 0 0 3px #ffffff;fill:#000000;text-rendering:geometricprecision;" y="15"><tspan>226</tspan></text></g><g style="cursor:pointer;" transform="translate(270,93)"><text x="5" style="font-size:10px;font-weight:bold;font-family:'arial', sans-serif;color:#000000;text-shadow:0 0 6px #ffffff, 0 0 3px #ffffff;fill:#000000;text-rendering:geometricprecision;" y="15"><tspan>131</tspan></text></g><g style="cursor:pointer;" transform="translate(148,163)"><text x="5" style="font-size:10px;font-weight:bold;font-family:'arial', sans-serif;color:#000000;text-shadow:0 0 6px #ffffff, 0 0 3px #ffffff;fill:#000000;text-rendering:geometricprecision;" y="15"><tspan>72</tspan></text></g><g style="cursor:pointer;" transform="translate(70,232)"><text x="5" style="font-size:10px;font-weight:bold;font-family:'arial', sans-serif;color:#000000;text-shadow:0 0 6px #ffffff, 0 0 3px #ffffff;fill:#000000;text-rendering:geometricprecision;" y="15"><tspan>34</tspan></text></g></g><g class="highcharts-data-labels highcharts-series-1" transform="translate(75,36) scale(1 1)" opacity="1"></g><g class="highcharts-legend" transform="translate(236,360)"><g><g><g class="highcharts-legend-item" transform="translate(8,3)"><text x="21" style="color:#333;font-size:9pt;font-weight:normal;cursor:pointer;font-family:'lucida grande','lucida sans unicode',arial,helvetica,sans-serif;text-transform:none;fill:#333;" text-anchor="start" y="15"><tspan>Payment Method</tspan></text><rect x="0" y="4" width="16" height="12" fill="#CCC"></rect></g></g></g></g><g class="highcharts-axis-labels highcharts-xaxis-labels"><text x="60" style="color:#000000;cursor:default;font-size:10px;font-family:'arial', sans-serif;text-transform:none;font-weight:normal;fill:#000000;width:188px;text-overflow:clip;" text-anchor="end" transform="translate(0,0)" y="75" opacity="1"><tspan>Visa</tspan></text><text x="60" style="color:#000000;cursor:default;font-size:10px;font-family:'arial', sans-serif;text-transform:none;font-weight:normal;fill:#000000;width:188px;text-overflow:clip;" text-anchor="end" transform="translate(0,0)" y="144" opacity="1"><tspan>Mastercard</tspan></text><text x="60" style="color:#000000;cursor:default;font-size:10px;font-family:'arial', sans-serif;text-transform:none;font-weight:normal;fill:#000000;width:188px;text-overflow:clip;" text-anchor="end" transform="translate(0,0)" y="214" opacity="1"><tspan>Amex</tspan></text><text x="60" style="color:#000000;cursor:default;font-size:10px;font-family:'arial', sans-serif;text-transform:none;font-weight:normal;fill:#000000;width:188px;text-overflow:clip;" text-anchor="end" transform="translate(0,0)" y="283" opacity="1"><tspan>Diners</tspan></text></g><g class="highcharts-axis-labels highcharts-yaxis-labels"><text x="75" style="color:#000000;cursor:default;font-size:10px;font-family:'arial', sans-serif;text-transform:none;font-weight:normal;fill:#000000;" text-anchor="middle" transform="translate(0,0)" y="331" opacity="1">0</text><text x="126.5" style="color:#000000;cursor:default;font-size:10px;font-family:'arial', sans-serif;text-transform:none;font-weight:normal;fill:#000000;" text-anchor="middle" transform="translate(0,0)" y="331" opacity="1">25</text><text x="178" style="color:#000000;cursor:default;font-size:10px;font-family:'arial', sans-serif;text-transform:none;font-weight:normal;fill:#000000;" text-anchor="middle" transform="translate(0,0)" y="331" opacity="1">50</text><text x="229.5" style="color:#000000;cursor:default;font-size:10px;font-family:'arial', sans-serif;text-transform:none;font-weight:normal;fill:#000000;" text-anchor="middle" transform="translate(0,0)" y="331" opacity="1">75</text><text x="281" style="color:#000000;cursor:default;font-size:10px;font-family:'arial', sans-serif;text-transform:none;font-weight:normal;fill:#000000;" text-anchor="middle" transform="translate(0,0)" y="331" opacity="1">100</text><text x="332.5" style="color:#000000;cursor:default;font-size:10px;font-family:'arial', sans-serif;text-transform:none;font-weight:normal;fill:#000000;" text-anchor="middle" transform="translate(0,0)" y="331" opacity="1">125</text><text x="384" style="color:#000000;cursor:default;font-size:10px;font-family:'arial', sans-serif;text-transform:none;font-weight:normal;fill:#000000;" text-anchor="middle" transform="translate(0,0)" y="331" opacity="1">150</text><text x="435.5" style="color:#000000;cursor:default;font-size:10px;font-family:'arial', sans-serif;text-transform:none;font-weight:normal;fill:#000000;" text-anchor="middle" transform="translate(0,0)" y="331" opacity="1">175</text><text x="487" style="color:#000000;cursor:default;font-size:10px;font-family:'arial', sans-serif;text-transform:none;font-weight:normal;fill:#000000;" text-anchor="middle" transform="translate(0,0)" y="331" opacity="1">200</text><text x="538.5" style="color:#000000;cursor:default;font-size:10px;font-family:'arial', sans-serif;text-transform:none;font-weight:normal;fill:#000000;" text-anchor="middle" transform="translate(0,0)" y="331" opacity="1">225</text><text x="581.4453125" style="color:#000000;cursor:default;font-size:10px;font-family:'arial', sans-serif;text-transform:none;font-weight:normal;fill:#000000;" text-anchor="middle" transform="translate(0,0)" y="331" opacity="1">250</text></g><g class="highcharts-tooltip" display="none" style="cursor:default;padding:0;pointer-events:none;white-space:nowrap;" transform="translate(0,0)"><path fill="none" d="M 3.5 0.5 L 13.5 0.5 C 16.5 0.5 16.5 0.5 16.5 3.5 L 16.5 13.5 C 16.5 16.5 16.5 16.5 13.5 16.5 L 3.5 16.5 C 0.5 16.5 0.5 16.5 0.5 13.5 L 0.5 3.5 C 0.5 0.5 0.5 0.5 3.5 0.5"  stroke="black" stroke-opacity="0.049999999999999996" stroke-width="5" transform="translate(1, 1)"></path><path fill="none" d="M 3.5 0.5 L 13.5 0.5 C 16.5 0.5 16.5 0.5 16.5 3.5 L 16.5 13.5 C 16.5 16.5 16.5 16.5 13.5 16.5 L 3.5 16.5 C 0.5 16.5 0.5 16.5 0.5 13.5 L 0.5 3.5 C 0.5 0.5 0.5 0.5 3.5 0.5"  stroke="black" stroke-opacity="0.09999999999999999" stroke-width="3" transform="translate(1, 1)"></path><path fill="none" d="M 3.5 0.5 L 13.5 0.5 C 16.5 0.5 16.5 0.5 16.5 3.5 L 16.5 13.5 C 16.5 16.5 16.5 16.5 13.5 16.5 L 3.5 16.5 C 0.5 16.5 0.5 16.5 0.5 13.5 L 0.5 3.5 C 0.5 0.5 0.5 0.5 3.5 0.5"  stroke="black" stroke-opacity="0.15" stroke-width="1" transform="translate(1, 1)"></path><path fill="rgb(255, 255, 255)" fill-opacity=" 0.85" d="M 3.5 0.5 L 13.5 0.5 C 16.5 0.5 16.5 0.5 16.5 3.5 L 16.5 13.5 C 16.5 16.5 16.5 16.5 13.5 16.5 L 3.5 16.5 C 0.5 16.5 0.5 16.5 0.5 13.5 L 0.5 3.5 C 0.5 0.5 0.5 0.5 3.5 0.5"></path><text x="8" style="font-size:12px;color:#000000;fill:#000000;" y="20"></text></g><text x="590" text-anchor="end" style="cursor:pointer;color:#909090;font-size:9px;fill:#909090;" y="395">meta-chart.com</text></svg>